<svg xmlns="http://www.w3.org/2000/svg" viewBox="0 0 100 100"><rect width="100" height="100" rx="21" fill="#16161D"/><g transform="translate(-3.1379 -3.8400) scale(0.95317)"><path fill="#D8FE5B" d="M73.6519 18.9989C73.1979 19.8394 72.616 20.6262 71.9992 21.3414C71.5526 21.859 71.0695 22.3465 70.5256 22.7609C69.7283 23.3696 68.828 23.8269 68.0322 24.441C67.2482 25.0461 66.6162 25.8265 66.1021 26.6704C65.6787 27.365 65.3407 28.1133 65.0871 28.8902C64.8903 29.4871 64.2513 29.8062 63.649 29.631C62.9835 29.4373 62.3095 29.27 61.6278 29.1275C61.0888 29.0135 60.7025 28.5417 60.701 27.9895L60.7063 16.8093C60.7056 16.4884 60.444 16.2276 60.1232 16.2284L51.5834 16.2284C51.2636 16.2276 51.0027 16.4893 51.0034 16.8102L51.0007 28.0053C51.0005 28.5565 50.6147 29.0308 50.0768 29.1438C49.3857 29.2893 48.699 29.4621 48.0213 29.658C47.9948 29.6652 47.9673 29.6739 47.9355 29.6825C47.067 29.9452 46.1294 29.8656 45.3228 29.4469C45.2106 29.3889 45.1086 29.3367 45.0263 29.2892C44.3947 28.9358 43.9439 28.4671 43.5996 27.8335C43.2343 27.1587 43.031 26.4049 42.9192 25.6478C42.6775 24.0179 43.331 21.3338 40.382 17.4125C40.2057 17.1785 39.8828 17.1131 39.628 17.2595C38.2086 18.0806 33.7417 20.6607 32.1954 21.5541C31.9099 21.7187 31.8235 22.0857 31.9952 22.3664C32.4966 23.178 32.8867 24.0778 33.1981 24.9703C33.4228 25.6132 33.6036 26.2779 33.6897 26.9551C33.8167 27.9496 33.763 28.9584 33.897 29.9524C34.0292 30.9341 34.3882 31.8721 34.8603 32.7385C35.2769 33.499 35.7916 34.2063 36.3823 34.8476C36.8016 35.3049 36.7769 36.019 36.3318 36.4523C35.8739 36.8961 35.429 37.3564 35.0013 37.8333C34.6341 38.2443 34.03 38.3438 33.5528 38.0683L23.8751 32.4809C23.5962 32.3198 23.241 32.4151 23.0799 32.6941L18.876 39.9755C18.7149 40.2546 18.81 40.6098 19.0889 40.7708L28.7667 46.3583C29.2438 46.6337 29.4597 47.2066 29.2874 47.7301C29.0882 48.339 28.912 48.9545 28.7566 49.5729C28.6039 50.175 27.9978 50.5535 27.3922 50.419C26.5414 50.2281 25.6715 50.136 24.8046 50.1554C23.8182 50.1798 22.8264 50.3378 21.9102 50.7142C20.9823 51.0952 20.1355 51.6462 19.2108 52.0334C18.5812 52.2974 17.9152 52.4731 17.246 52.6C16.3174 52.7766 15.3432 52.8887 14.3896 52.8603C14.0606 52.8519 13.786 53.1102 13.7862 53.4398C13.7856 55.2256 13.7846 60.3841 13.7833 62.0239C13.7839 62.3178 14.002 62.5647 14.2928 62.6004C19.1632 63.1936 21.1609 61.2856 22.6934 60.68C23.4049 60.3983 24.1593 60.1974 24.9264 60.1764C25.6473 60.1578 26.2786 60.3138 26.9004 60.6841C26.9828 60.7316 27.079 60.7939 27.1853 60.862C27.9512 61.3513 28.4889 62.1234 28.6956 63.0069C28.7042 63.0387 28.7103 63.0669 28.7174 63.0934C28.8865 63.7783 29.0802 64.4594 29.2997 65.1307C29.4708 65.6531 29.2531 66.2243 28.7757 66.5L19.0818 72.0999C18.8036 72.2598 18.7074 72.6166 18.8681 72.8931L23.1379 80.2888C23.2976 80.567 23.6543 80.6632 23.9325 80.5033L33.6122 74.9087C34.0912 74.6339 34.6929 74.7325 35.0611 75.1423C35.5254 75.6614 36.0073 76.1615 36.5078 76.6409C36.9607 77.075 37.0038 77.7879 36.5853 78.2567C36.0393 78.8648 35.5602 79.5317 35.1704 80.2457C34.6966 81.1129 34.3368 82.0504 34.2047 83.0319C34.0709 84.0281 34.1249 85.0365 33.9964 86.0313C33.9095 86.7095 33.7288 87.3716 33.5039 88.0172C33.1929 88.909 32.8025 89.8064 32.3015 90.6198C32.1282 90.9006 32.2148 91.2667 32.4995 91.4332L39.9308 95.7238C40.1845 95.8702 40.5093 95.8045 40.6851 95.5698C43.635 91.6477 42.982 88.9646 43.2254 87.3324C43.3386 86.5775 43.5404 85.8244 43.9079 85.1491C44.2511 84.5158 44.7019 84.0455 45.3343 83.6912C45.3811 83.6644 45.4349 83.6372 45.4907 83.6066C46.2854 83.1847 47.2151 83.076 48.0779 83.3277C48.7561 83.5265 49.4412 83.6979 50.1306 83.8427C50.6696 83.9567 51.0549 84.4301 51.0547 84.9813L51.0538 96.1618C51.0528 96.4817 51.3144 96.7425 51.6352 96.7417L60.1733 96.7407C60.4931 96.7416 60.754 96.4799 60.755 96.16L60.7577 84.9648C60.7579 84.4136 61.1444 83.942 61.6833 83.8273C62.3014 83.6957 62.9156 83.5437 63.5231 83.3723C64.113 83.2042 64.7339 83.5335 64.9292 84.1147C65.1811 84.8697 65.5113 85.5937 65.9209 86.2695C66.4352 87.1132 67.0681 87.891 67.8513 88.4978C68.6463 89.1114 69.5471 89.5688 70.3433 90.1764C70.8861 90.5906 71.3704 91.0786 71.8166 91.594C72.4333 92.3108 73.0161 93.0978 73.4697 93.9379C73.627 94.2282 73.9882 94.3359 74.2737 94.1712L81.7043 89.88C81.9592 89.7336 82.0651 89.4182 81.9501 89.1479C80.0295 84.6325 77.3805 83.8584 76.0888 82.8325C75.2426 82.1601 74.49 81.3334 74.124 80.2795C74.0884 80.1782 74.0617 80.0732 74.0429 79.966C74.0177 79.8079 74.002 79.6488 73.9958 79.4928C73.9506 78.4962 74.3582 77.5303 75.0869 76.8462C75.6673 76.3027 76.2242 75.7301 76.7571 75.1368C77.126 74.7268 77.7284 74.6263 78.2072 74.9028L87.885 80.4902C88.1622 80.6503 88.5191 80.556 88.6802 80.277L92.8841 72.9956C93.0452 72.7165 92.9484 72.3604 92.6712 72.2003L82.9934 66.6128C82.5146 66.3364 82.3004 65.7645 82.471 65.24C82.7183 64.4818 82.9358 63.7132 83.1163 62.9389C83.3444 61.9657 83.9771 61.1297 84.8627 60.6706C85.001 60.598 85.1466 60.532 85.2961 60.4749C85.3983 60.4375 85.5027 60.4081 85.6082 60.3883C86.7039 60.1783 87.7962 60.4167 88.8015 60.8134C90.3358 61.4191 92.3308 63.3261 97.2015 62.7317C97.4931 62.6961 97.7132 62.4467 97.7127 62.1528L97.7136 53.5721C97.7135 53.2425 97.4396 52.9836 97.1096 52.9925C96.1552 53.0197 95.1823 52.9084 94.2531 52.7328C93.5837 52.6041 92.9189 52.4286 92.2888 52.1657C91.3645 51.78 90.518 51.2285 89.5891 50.8469C88.672 50.472 87.6819 50.3127 86.6941 50.2892C85.9041 50.2724 85.1119 50.3484 84.3322 50.5078C83.7311 50.6292 83.1355 50.2562 82.9862 49.6612C82.8309 49.0494 82.6554 48.4416 82.4603 47.8404C82.2902 47.3164 82.5053 46.7458 82.9827 46.4701L92.6766 40.8702C92.9531 40.7094 93.0493 40.3526 92.8887 40.076L88.6205 32.6813C88.4608 32.4031 88.1041 32.307 87.8275 32.4678L78.1455 38.0588C77.6682 38.3346 77.0655 38.2376 76.6973 37.8278C76.2273 37.3032 75.7362 36.7956 75.2249 36.3076C74.5756 35.6862 74.2049 34.8267 74.1729 33.9275C74.1715 33.864 74.1682 33.8038 74.168 33.7499C74.1586 33.025 74.3405 32.3995 74.7173 31.7856C75.1184 31.1297 75.6697 30.5784 76.2668 30.1029C77.5587 29.076 80.2088 28.3 82.1305 23.7842C82.2458 23.5146 82.1404 23.2005 81.8867 23.054L74.4553 18.7635C74.1687 18.6003 73.8085 18.7083 73.6519 18.9989ZM69.8391 43.021C70.0862 43.2758 70.3195 43.5314 70.534 43.7808C71.9516 45.415 73.0711 47.2514 73.8755 49.2533C73.9995 49.5624 74.1172 49.8746 74.225 50.1923C74.7037 51.5826 75.0239 53.0225 75.1775 54.4715C75.452 56.9876 75.2383 59.4841 74.5446 61.8963C74.4484 62.2374 74.3451 62.5677 74.2348 62.8828L74.2329 62.8862C73.8821 63.9051 73.4434 64.8978 72.9256 65.845C72.8591 65.9679 72.7919 66.0883 72.7237 66.2102C72.6538 66.3313 72.5816 66.4487 72.5083 66.5677C71.9469 67.4897 71.3066 68.366 70.5996 69.1793L70.5976 69.1826C70.3799 69.4357 70.1455 69.6903 69.8981 69.9441C68.156 71.751 66.1008 73.1843 63.7845 74.2046C62.4528 74.7961 61.0458 75.2388 59.6024 75.5193C59.2734 75.5848 58.9441 75.639 58.6144 75.6863C56.4786 75.9905 54.3285 75.9392 52.2043 75.5286C51.8812 75.4675 51.5431 75.3934 51.1989 75.3067C49.4491 74.8724 47.7604 74.1888 46.1844 73.2789C45.5863 72.9336 45.0032 72.5543 44.4477 72.1507C43.2625 71.2894 42.177 70.2906 41.2204 69.1848C39.5889 67.3038 38.3487 65.1489 37.5318 62.7768C37.0516 61.3813 36.7314 59.9414 36.5786 58.495C36.3074 55.9808 36.5211 53.4843 37.2141 51.0695C37.31 50.7327 37.4143 50.4007 37.5248 50.0813C37.9175 48.9432 38.4254 47.8268 39.0364 46.7609C39.654 45.6988 40.3669 44.7007 41.1562 43.7916C41.3776 43.5362 41.6129 43.2798 41.8567 43.0284C43.6014 41.2209 45.6566 39.7875 47.9695 38.7652C49.2986 38.1744 50.7056 37.7318 52.1543 37.4498C54.6171 36.9712 57.1034 36.9679 59.5481 37.4403C60.984 37.7158 62.3918 38.1566 63.7303 38.7523C64.3576 39.0315 64.9775 39.3469 65.5757 39.6922C67.1517 40.6021 68.5881 41.7228 69.8391 43.021Z"/></g></svg>
