<svg viewBox="0 0 200 200" xmlns="http://www.w3.org/2000/svg" role="img" aria-label="Iterra shape — Sol"><path fill="currentColor" d="M100.00 2.00 L110.96 16.72 L125.36 5.34 L132.15 22.39 L149.00 15.13 L151.14 33.36 L169.30 30.70 L166.64 48.86 L184.87 51.00 L177.61 67.85 L194.66 74.64 L183.28 89.04 L198.00 100.00 L183.28 110.96 L194.66 125.36 L177.61 132.15 L184.87 149.00 L166.64 151.14 L169.30 169.30 L151.14 166.64 L149.00 184.87 L132.15 177.61 L125.36 194.66 L110.96 183.28 L100.00 198.00 L89.04 183.28 L74.64 194.66 L67.85 177.61 L51.00 184.87 L48.86 166.64 L30.70 169.30 L33.36 151.14 L15.13 149.00 L22.39 132.15 L5.34 125.36 L16.72 110.96 L2.00 100.00 L16.72 89.04 L5.34 74.64 L22.39 67.85 L15.13 51.00 L33.36 48.86 L30.70 30.70 L48.86 33.36 L51.00 15.13 L67.85 22.39 L74.64 5.34 L89.04 16.72 Z"></path></svg>
